grf.mot
version=1
nRows=21
nColumns=31
inDegrees=yes
endheader
time	ground_force_vx	ground_force_vy	ground_force_vz	ground_force_px	ground_force_py	ground_force_pz	1_ground_force_vx	1_ground_force_vy	1_ground_force_vz	1_ground_force_px	1_ground_force_py	1_ground_force_pz	ground_torque_x	ground_torque_y	ground_torque_z	1_ground_torque_x	1_ground_torque_y	1_ground_torque_z	apo_force_vx	apo_force_vy	apo_force_vz	apo_force_px	apo_force_py	apo_force_pz	1_apo_force_vx	1_apo_force_vy	1_apo_force_vz	1_apo_force_px	1_apo_force_py	1_apo_force_pz	
3.71526000000000	-1.37992000000000	51.51960000000000	5.94680000000000	0.04794130000000	0.00000000000000	0.00688829000000	103.68800000000000	812.28700000000003	46.09850000000000	-0.19551000000000	0.00000000000000	-0.14604800000000	0.00000000000000	-0.19390100000000	0.00000000000000	0.00000000000000	0.65606600000000	0.00000000000000	-11.28400000000000	-7.87130000000000	0.00000000000000	0.00000000000000	-0.35000000000000	0.00000000000000	12.22200000000000	-1.14270000000000	0.00000000000000	0.00000000000000	-0.35000000000000	0.00000000000000	
3.72026000000000	-6.55519000000000	76.30300000000000	6.17692000000000	0.06108080000000	0.00000000000000	0.00980150000000	108.57299999999999	807.79800000000000	43.22040000000000	-0.20536500000000	0.00000000000000	-0.14629100000000	0.00000000000000	-0.21717800000000	0.00000000000000	0.00000000000000	0.31030700000000	0.00000000000000	-11.93800000000000	-8.30960000000000	0.00000000000000	0.00000000000000	-0.35000000000000	0.00000000000000	13.08500000000000	-1.38900000000000	0.00000000000000	0.00000000000000	-0.35000000000000	0.00000000000000	
3.72526000000000	-10.70120000000000	95.72669999999999	6.21381000000000	0.07083750000000	0.00000000000000	0.01199720000000	111.53300000000000	802.32000000000005	40.93110000000000	-0.21227200000000	0.00000000000000	-0.14646700000000	0.00000000000000	-0.22932900000000	0.00000000000000	0.00000000000000	0.06105220000000	0.00000000000000	-12.57500000000000	-8.73690000000000	0.00000000000000	0.00000000000000	-0.35000000000000	0.00000000000000	13.84500000000000	-1.64150000000000	0.00000000000000	0.00000000000000	-0.35000000000000	0.00000000000000	
3.73026000000000	-11.33420000000000	98.66570000000000	6.20839000000000	0.07227040000000	0.00000000000000	0.01232240000000	111.91700000000000	801.34799999999996	40.58340000000000	-0.21325500000000	0.00000000000000	-0.14649200000000	0.00000000000000	-0.23069200000000	0.00000000000000	0.00000000000000	0.02501410000000	0.00000000000000	-13.02200000000000	-9.03400000000000	0.00000000000000	0.00000000000000	-0.35000000000000	0.00000000000000	14.28600000000000	-1.86690000000000	0.00000000000000	0.00000000000000	-0.35000000000000	0.00000000000000	
3.73526000000000	-11.96730000000000	101.60500000000000	6.20296000000000	0.07370330000000	0.00000000000000	0.01264760000000	112.30000000000000	800.37599999999998	40.23560000000000	-0.21423900000000	0.00000000000000	-0.14651600000000	0.00000000000000	-0.23205600000000	0.00000000000000	0.00000000000000	-0.01102390000000	0.00000000000000	-13.44500000000000	-9.31830000000000	0.00000000000000	0.00000000000000	-0.35000000000000	0.00000000000000	14.72200000000000	-2.09660000000000	0.00000000000000	0.00000000000000	-0.35000000000000	0.00000000000000	
3.74026000000000	-12.60030000000000	104.54400000000000	6.19754000000000	0.07513630000000	0.00000000000000	0.01297290000000	112.68300000000001	799.40400000000000	39.88790000000000	-0.21522200000000	0.00000000000000	-0.14654100000000	0.00000000000000	-0.23341900000000	0.00000000000000	0.00000000000000	-0.04706200000000	0.00000000000000	-13.83100000000000	-9.58130000000000	0.00000000000000	0.00000000000000	-0.35000000000000	0.00000000000000	15.14400000000000	-2.32800000000000	0.00000000000000	0.00000000000000	-0.35000000000000	0.00000000000000	
3.74526000000000	-19.48340000000000	136.20300000000000	5.98279000000000	0.08993040000000	0.00000000000000	0.01637360000000	115.91100000000000	787.00300000000004	36.14020000000000	-0.22493400000000	0.00000000000000	-0.14677900000000	0.00000000000000	-0.24124700000000	0.00000000000000	0.00000000000000	-0.41125500000000	0.00000000000000	-14.53800000000000	-10.07200000000000	0.00000000000000	0.00000000000000	-0.35000000000000	0.00000000000000	16.07500000000000	-2.64470000000000	0.00000000000000	0.00000000000000	-0.35000000000000	0.00000000000000	
3.75026000000000	-27.15470000000000	171.18000000000001	5.51064000000000	0.10526300000000	0.00000000000000	0.01996980000000	118.16900000000000	770.56299999999999	32.02700000000000	-0.23434600000000	0.00000000000000	-0.14697900000000	0.00000000000000	-0.23943600000000	0.00000000000000	0.00000000000000	-0.77708600000000	0.00000000000000	-15.29300000000000	-10.60200000000000	0.00000000000000	0.00000000000000	-0.35000000000000	0.00000000000000	17.01000000000000	-2.97250000000000	0.00000000000000	0.00000000000000	-0.35000000000000	0.00000000000000	
3.75526000000000	-35.54630000000000	209.31000000000000	4.76370000000000	0.12091500000000	0.00000000000000	0.02372360000000	119.38200000000001	750.12500000000000	27.60790000000000	-0.24329200000000	0.00000000000000	-0.14711400000000	0.00000000000000	-0.22696700000000	0.00000000000000	0.00000000000000	-1.13909000000000	0.00000000000000	-16.10000000000000	-11.17700000000000	0.00000000000000	0.00000000000000	-0.35000000000000	0.00000000000000	17.94300000000000	-3.30760000000000	0.00000000000000	0.00000000000000	-0.35000000000000	0.00000000000000	
3.76026000000000	-38.66150000000000	223.46600000000001	4.43170000000000	0.12646300000000	0.00000000000000	0.02507650000000	119.54700000000000	741.97799999999995	25.98960000000000	-0.24630000000000	0.00000000000000	-0.14714000000000	0.00000000000000	-0.21984700000000	0.00000000000000	0.00000000000000	-1.26466000000000	0.00000000000000	-16.38700000000000	-11.39900000000000	0.00000000000000	0.00000000000000	-0.35000000000000	0.00000000000000	18.34400000000000	-3.54420000000000	0.00000000000000	0.00000000000000	-0.35000000000000	0.00000000000000	
3.76526000000000	-38.91950000000000	224.63999999999999	4.40217000000000	0.12691300000000	0.00000000000000	0.02518710000000	119.55100000000000	741.28300000000002	25.85650000000000	-0.24653800000000	0.00000000000000	-0.14714100000000	0.00000000000000	-0.21916500000000	0.00000000000000	0.00000000000000	-1.27473000000000	0.00000000000000	-16.34000000000000	-11.39600000000000	0.00000000000000	0.00000000000000	-0.35000000000000	0.00000000000000	18.46700000000000	-3.71720000000000	0.00000000000000	0.00000000000000	-0.35000000000000	0.00000000000000	
3.77026000000000	-39.17750000000000	225.81299999999999	4.37264000000000	0.12736300000000	0.00000000000000	0.02529770000000	119.55400000000000	740.58799999999997	25.72330000000000	-0.24677500000000	0.00000000000000	-0.14714200000000	0.00000000000000	-0.21848300000000	0.00000000000000	0.00000000000000	-1.28481000000000	0.00000000000000	-16.22200000000000	-11.35100000000000	0.00000000000000	0.00000000000000	-0.35000000000000	0.00000000000000	18.55600000000000	-3.86950000000000	0.00000000000000	0.00000000000000	-0.35000000000000	0.00000000000000	
3.77527000000000	-39.43560000000000	226.98599999999999	4.34310000000000	0.12781300000000	0.00000000000000	0.02540830000000	119.55700000000000	739.89300000000003	25.59020000000000	-0.24701300000000	0.00000000000000	-0.14714400000000	0.00000000000000	-0.21780100000000	0.00000000000000	0.00000000000000	-1.29489000000000	0.00000000000000	-16.03800000000000	-11.26700000000000	0.00000000000000	0.00000000000000	-0.35000000000000	0.00000000000000	18.61700000000000	-3.99990000000000	0.00000000000000	0.00000000000000	-0.35000000000000	0.00000000000000	
3.78028000000000	-39.69360000000000	228.16000000000000	4.31357000000000	0.12826300000000	0.00000000000000	0.02551890000000	119.56100000000001	739.19799999999998	25.45700000000000	-0.24725100000000	0.00000000000000	-0.14714500000000	0.00000000000000	-0.21711900000000	0.00000000000000	0.00000000000000	-1.30497000000000	0.00000000000000	-15.79700000000000	-11.14700000000000	0.00000000000000	0.00000000000000	-0.35000000000000	0.00000000000000	18.65500000000000	-4.10790000000000	0.00000000000000	0.00000000000000	-0.35000000000000	0.00000000000000	
3.78529000000000	-39.95160000000000	229.33300000000000	4.28404000000000	0.12871300000000	0.00000000000000	0.02562960000000	119.56399999999999	738.50300000000004	25.32390000000000	-0.24748900000000	0.00000000000000	-0.14714600000000	0.00000000000000	-0.21643700000000	0.00000000000000	0.00000000000000	-1.31505000000000	0.00000000000000	-15.51600000000000	-11.00300000000000	0.00000000000000	0.00000000000000	-0.35000000000000	0.00000000000000	18.68400000000000	-4.19520000000000	0.00000000000000	0.00000000000000	-0.35000000000000	0.00000000000000	
3.79029000000000	-40.20960000000000	230.50600000000000	4.25450000000000	0.12916300000000	0.00000000000000	0.02574020000000	119.56699999999999	737.80799999999999	25.19070000000000	-0.24772600000000	0.00000000000000	-0.14714700000000	0.00000000000000	-0.21575500000000	0.00000000000000	0.00000000000000	-1.32513000000000	0.00000000000000	-15.20800000000000	-10.84200000000000	0.00000000000000	0.00000000000000	-0.35000000000000	0.00000000000000	18.71200000000000	-4.26280000000000	0.00000000000000	0.00000000000000	-0.35000000000000	0.00000000000000	
3.79529000000000	-40.46770000000000	231.68000000000001	4.22497000000000	0.12961300000000	0.00000000000000	0.02585080000000	119.57100000000000	737.11300000000006	25.05760000000000	-0.24796400000000	0.00000000000000	-0.14714800000000	0.00000000000000	-0.21507300000000	0.00000000000000	0.00000000000000	-1.33521000000000	0.00000000000000	-14.88700000000000	-10.67400000000000	0.00000000000000	0.00000000000000	-0.35000000000000	0.00000000000000	18.74900000000000	-4.31200000000000	0.00000000000000	0.00000000000000	-0.35000000000000	0.00000000000000	
3.80029000000000	-40.72570000000000	232.85300000000001	4.19544000000000	0.13006300000000	0.00000000000000	0.02596140000000	119.57400000000000	736.41800000000001	24.92440000000000	-0.24820200000000	0.00000000000000	-0.14714900000000	0.00000000000000	-0.21439100000000	0.00000000000000	0.00000000000000	-1.34529000000000	0.00000000000000	-14.56400000000000	-10.50500000000000	0.00000000000000	0.00000000000000	-0.35000000000000	0.00000000000000	18.80000000000000	-4.34360000000000	0.00000000000000	0.00000000000000	-0.35000000000000	0.00000000000000	
3.80529000000000	-40.98370000000000	234.02699999999999	4.16591000000000	0.13051300000000	0.00000000000000	0.02607200000000	119.57700000000000	735.72299999999996	24.79130000000000	-0.24843900000000	0.00000000000000	-0.14715000000000	0.00000000000000	-0.21370900000000	0.00000000000000	0.00000000000000	-1.35537000000000	0.00000000000000	-14.24900000000000	-10.34200000000000	0.00000000000000	0.00000000000000	-0.35000000000000	0.00000000000000	18.86900000000000	-4.35820000000000	0.00000000000000	0.00000000000000	-0.35000000000000	0.00000000000000	
3.81029000000000	-41.24180000000000	235.19999999999999	4.13637000000000	0.13096300000000	0.00000000000000	0.02618260000000	119.58100000000000	735.02800000000002	24.65810000000000	-0.24867700000000	0.00000000000000	-0.14715100000000	0.00000000000000	-0.21302600000000	0.00000000000000	0.00000000000000	-1.36545000000000	0.00000000000000	-13.95100000000000	-10.18900000000000	0.00000000000000	0.00000000000000	-0.35000000000000	0.00000000000000	18.95800000000000	-4.35590000000000	0.00000000000000	0.00000000000000	-0.35000000000000	0.00000000000000	
3.81529000000000	-41.49980000000000	236.37299999999999	4.10684000000000	0.13141300000000	0.00000000000000	0.02629320000000	119.58400000000000	734.33299999999997	24.52500000000000	-0.24891500000000	0.00000000000000	-0.14715300000000	0.00000000000000	-0.21234400000000	0.00000000000000	0.00000000000000	-1.37553000000000	0.00000000000000	-13.67900000000000	-10.05300000000000	0.00000000000000	0.00000000000000	-0.35000000000000	0.00000000000000	19.07200000000000	-4.33750000000000	0.00000000000000	0.00000000000000	-0.35000000000000	0.00000000000000	
